<svg width="60" height="60" viewBox="0 0 60 60" fill="none" xmlns="http://www.w3.org/2000/svg">
<rect width="59.3694" height="59.2301" rx="11.984" fill="#00B16D"/>
<path d="M41 40V24H25V23C25 21.3456 26.3456 20 28 20H31V14H28C25.614 14.003 23.3265 14.9521 21.6393 16.6393C19.9521 18.3265 19.003 20.614 19 23V24H15V30H19V40H15V46H29V40H25V30H35.056V40H31V46H45V40H41Z" fill="white"/>
<path d="M38 20C39.6569 20 41 18.6569 41 17C41 15.3431 39.6569 14 38 14C36.3431 14 35 15.3431 35 17C35 18.6569 36.3431 20 38 20Z" fill="white"/>
</svg>
