<svg width="59" height="18" viewBox="0 0 59 18" fill="none" xmlns="http://www.w3.org/2000/svg">
<path d="M54.1075 8.79105H52.0178C50.6754 8.79105 49.9526 9.82946 49.9526 11.5568V17.8024H45.9943V8.79105H44.3127C42.9679 8.79105 42.2475 9.82946 42.2475 11.5568V17.8024H38.2893V5.458H42.2475V7.33221C42.8966 5.87843 43.7866 5.458 45.1068 5.458H49.955V7.33221C50.6041 5.87843 51.4916 5.458 52.8119 5.458H54.1075V8.79105ZM37.4239 12.5927H29.1656C29.382 13.9755 30.2228 14.7657 31.6389 14.7657C32.6961 14.7657 33.4386 14.3225 33.6795 13.5323L37.1829 14.5454C36.32 16.6931 34.1835 18 31.6389 18C27.3414 18 25.3721 14.5682 25.3721 11.6302C25.3721 8.74293 27.1005 5.28577 31.3955 5.28577C35.9586 5.28577 37.4706 8.79105 37.4706 11.3846C37.4706 11.9519 37.446 12.3217 37.4214 12.5927H37.4239ZM33.5836 10.1992C33.4853 9.1355 32.7428 8.14774 31.398 8.14774C30.1491 8.14774 29.4066 8.7176 29.1656 10.1992H33.5836ZM18.4587 17.7999H21.94L26.2842 5.45547H22.3014L20.1871 12.6408L18.0285 5.45547H14.0628L18.4587 17.7999ZM2.23235 17.7999H6.17093V8.78852H9.91774V17.7999H13.8293V5.45547H6.17093V4.69059C6.17093 3.84973 6.74869 3.33305 7.66081 3.33305H9.91774V0H7.00683C4.15001 0 2.22989 1.80329 2.22989 4.44491V5.458H0V8.79105H2.23235V17.8024V17.7999Z" fill="#00B16D"/>
<path d="M56.5513 17.6328C56.8725 17.6331 57.1907 17.5682 57.4876 17.4419C57.7845 17.3156 58.0544 17.1302 58.2818 16.8964C58.5092 16.6627 58.6896 16.385 58.8129 16.0794C58.9361 15.7738 58.9997 15.4462 59 15.1152C59.0003 14.7843 58.9374 14.4565 58.8147 14.1507C58.6921 13.8448 58.5122 13.5668 58.2852 13.3326C58.0583 13.0983 57.7888 12.9124 57.4922 12.7855C57.1955 12.6585 56.8775 12.593 56.5562 12.5927C55.9074 12.592 55.285 12.8568 54.8257 13.329C54.3665 13.8011 54.1082 14.4418 54.1075 15.1102C54.1069 15.7785 54.364 16.4198 54.8223 16.8929C55.2806 17.3659 55.9025 17.6321 56.5513 17.6328Z" fill="#00B16D"/>
</svg>
