<svg width="34" height="27" viewBox="0 0 34 27" fill="none" xmlns="http://www.w3.org/2000/svg">
<path d="M10.956 12.6856C11.7552 12.6856 12.5466 12.5282 13.285 12.2223C14.0234 11.9165 14.6944 11.4682 15.2595 10.903C15.8246 10.3379 16.2729 9.66696 16.5788 8.92856C16.8846 8.19016 17.0421 7.39875 17.0421 6.59952C17.0421 5.80028 16.8846 5.00887 16.5788 4.27047C16.2729 3.53207 15.8246 2.86115 15.2595 2.296C14.6944 1.73086 14.0234 1.28256 13.285 0.976704C12.5466 0.670849 11.7552 0.513428 10.956 0.513428C9.34185 0.513428 7.79383 1.15464 6.65247 2.296C5.5111 3.43736 4.86989 4.98539 4.86989 6.59952C4.86989 8.21365 5.5111 9.76167 6.65247 10.903C7.79383 12.0444 9.34185 12.6856 10.956 12.6856ZM21.2347 22.99C22.2666 23.3079 23.5528 23.5053 25.1569 23.5053C33.2716 23.5053 33.2716 18.4336 33.2716 18.4336C33.2716 17.6265 32.951 16.8525 32.3804 16.2818C31.8097 15.7111 31.0357 15.3905 30.2286 15.3905H21.2266C22.0127 16.2084 22.4509 17.2992 22.4492 18.4336V19.1842L22.4452 19.2965C22.4166 19.7482 22.3469 20.1963 22.2369 20.6354C22.0276 21.4671 21.69 22.261 21.2361 22.9887M29.8905 7.95198C29.8905 8.57361 29.768 9.18915 29.5302 9.76346C29.2923 10.3378 28.9436 10.8596 28.504 11.2992C28.0645 11.7387 27.5426 12.0874 26.9683 12.3253C26.394 12.5632 25.7785 12.6856 25.1569 12.6856C24.5352 12.6856 23.9197 12.5632 23.3454 12.3253C22.7711 12.0874 22.2492 11.7387 21.8097 11.2992C21.3701 10.8596 21.0214 10.3378 20.7836 9.76346C20.5457 9.18915 20.4232 8.57361 20.4232 7.95198C20.4232 6.69655 20.9219 5.49253 21.8097 4.6048C22.6974 3.71708 23.9014 3.21836 25.1569 3.21836C26.4123 3.21836 27.6163 3.71708 28.504 4.6048C29.3918 5.49253 29.8905 6.69655 29.8905 7.95198ZM0.8125 18.4336C0.8125 17.6265 1.13311 16.8525 1.70379 16.2818C2.27447 15.7111 3.04848 15.3905 3.85554 15.3905H18.0564C18.8635 15.3905 19.6375 15.7111 20.2082 16.2818C20.7789 16.8525 21.0995 17.6265 21.0995 18.4336V19.1098C21.0995 19.1098 21.0995 26.2102 10.956 26.2102C0.8125 26.2102 0.8125 19.1098 0.8125 19.1098V18.4336Z" fill="#1D7CCF"/>
</svg>
